<svg version="1.1" id="Layer_1" xmlns="http://www.w3.org/2000/svg" xmlns:xlink="http://www.w3.org/1999/xlink" x="0px" y="0px"
	 width="100%" viewBox="0 0 512 512" enable-background="new 0 0 512 512" xml:space="preserve">
<path fill="#8000FF" opacity="1.000000" stroke="none" 
	d="
M236.000000,513.000000 
	C157.352402,513.000000 79.204803,513.000000 1.028605,513.000000 
	C1.028605,342.394043 1.028605,171.788086 1.028605,1.091059 
	C171.564285,1.091059 342.128632,1.091059 512.846497,1.091059 
	C512.846497,171.666565 512.846497,342.333252 512.846497,513.000000 
	C420.788055,513.000000 328.644012,513.000000 236.000000,513.000000 
M406.181030,297.053497 
	C406.181030,270.197266 406.181030,243.341003 406.181030,216.452957 
	C378.663605,216.452957 351.824371,216.452957 324.992065,216.452957 
	C324.796448,217.270477 324.584290,217.744110 324.583893,218.217957 
	C324.561798,244.168839 324.554108,270.119720 324.570862,296.070618 
	C324.571289,296.713837 324.862549,297.356903 325.379608,298.680634 
	C326.737701,299.118103 328.094604,299.932587 329.454102,299.937012 
	C353.414093,300.014984 377.374542,300.031738 401.334137,299.907806 
	C402.883423,299.899811 404.426270,298.643372 406.181030,297.053497 
M187.402039,297.342346 
	C187.507431,296.693146 187.704636,296.043945 187.704956,295.394714 
	C187.717087,269.924011 187.714111,244.453308 187.694611,218.982620 
	C187.694000,218.194351 187.497620,217.406235 187.382095,216.539902 
	C160.120941,216.539902 133.131714,216.539902 106.069557,216.539902 
	C106.069557,243.944138 106.069557,270.897675 106.387650,298.561707 
	C107.887909,299.039948 109.386658,299.929443 110.888657,299.934937 
	C134.681671,300.022125 158.475281,300.032410 182.268021,299.912872 
	C183.840073,299.904999 185.406174,298.709747 187.402039,297.342346 
M294.321289,320.164459 
	C294.521667,316.409393 291.676941,317.468689 289.781586,317.464447 
	C265.448578,317.409882 241.115417,317.423248 216.782303,317.444458 
	C215.506714,317.445557 214.231308,317.671539 212.900482,317.798096 
	C212.900482,345.019012 212.900482,371.911713 212.900482,398.847412 
	C240.148300,398.847412 267.049103,398.847412 294.315002,398.847412 
	C294.315002,372.679504 294.315002,346.867676 294.321289,320.164459 
M234.500305,109.418533 
	C226.720642,109.418533 218.940994,109.418533 211.109573,109.418533 
	C211.109573,136.936569 211.109573,163.829224 211.109573,190.872498 
	C238.331497,190.872498 265.218292,190.872498 292.231323,190.872498 
	C292.231323,163.654022 292.231323,136.774353 292.231323,109.418587 
	C273.087311,109.418587 254.293808,109.418587 234.500305,109.418533 
z"/>
<path fill="#FEFDFF" opacity="1.000000" stroke="none" 
	d="
M294.318146,320.610168 
	C294.315002,346.867676 294.315002,372.679504 294.315002,398.847412 
	C267.049103,398.847412 240.148300,398.847412 212.900482,398.847412 
	C212.900482,371.911713 212.900482,345.019012 212.900482,317.798096 
	C214.231308,317.671539 215.506714,317.445557 216.782303,317.444458 
	C241.115417,317.423248 265.448578,317.409882 289.781586,317.464447 
	C291.676941,317.468689 294.521667,316.409393 294.318146,320.610168 
z"/>
<path fill="#FDFBFF" opacity="1.000000" stroke="none" 
	d="
M235.000305,109.418564 
	C254.293808,109.418587 273.087311,109.418587 292.231323,109.418587 
	C292.231323,136.774353 292.231323,163.654022 292.231323,190.872498 
	C265.218292,190.872498 238.331497,190.872498 211.109573,190.872498 
	C211.109573,163.829224 211.109573,136.936569 211.109573,109.418533 
	C218.940994,109.418533 226.720642,109.418533 235.000305,109.418564 
z"/>
<path fill="#FDFCFF" opacity="1.000000" stroke="none" 
	d="
M106.069557,297.851227 
	C106.069557,270.897675 106.069557,243.944138 106.069557,216.539902 
	C133.131714,216.539902 160.120941,216.539902 187.382095,216.539902 
	C187.497620,217.406235 187.694000,218.194351 187.694611,218.982620 
	C187.714111,244.453308 187.717087,269.924011 187.704956,295.394714 
	C187.704636,296.043945 187.507431,296.693146 186.725555,297.648529 
	C159.389236,297.920227 132.729401,297.885742 106.069557,297.851227 
z"/>
<path fill="#FEFDFF" opacity="1.000000" stroke="none" 
	d="
M325.018158,298.000031 
	C324.862549,297.356903 324.571289,296.713837 324.570862,296.070618 
	C324.554108,270.119720 324.561798,244.168839 324.583893,218.217957 
	C324.584290,217.744110 324.796448,217.270477 324.992065,216.452957 
	C351.824371,216.452957 378.663605,216.452957 406.181030,216.452957 
	C406.181030,243.341003 406.181030,270.197266 405.610779,297.491516 
	C378.366394,297.953064 351.692291,297.976562 325.018158,298.000031 
z"/>
<path fill="#7100FF" opacity="1.000000" stroke="none" 
	d="
M106.228607,298.206482 
	C132.729401,297.885742 159.389236,297.920227 186.512054,298.010742 
	C185.406174,298.709747 183.840073,299.904999 182.268021,299.912872 
	C158.475281,300.032410 134.681671,300.022125 110.888657,299.934937 
	C109.386658,299.929443 107.887909,299.039948 106.228607,298.206482 
z"/>
<path fill="#7100FF" opacity="1.000000" stroke="none" 
	d="
M325.198883,298.340332 
	C351.692291,297.976562 378.366394,297.953064 405.506317,297.948608 
	C404.426270,298.643372 402.883423,299.899811 401.334137,299.907806 
	C377.374542,300.031738 353.414093,300.014984 329.454102,299.937012 
	C328.094604,299.932587 326.737701,299.118103 325.198883,298.340332 
z"/>
</svg>